<svg xmlns="http://www.w3.org/2000/svg" viewBox="0 0 960 420" font-family="'SF Mono',Menlo,Consolas,'Liberation Mono',monospace">
  <defs>
    <marker id="arr2" viewBox="0 0 10 10" refX="9" refY="5" markerWidth="7" markerHeight="7" orient="auto-start-reverse">
      <path d="M0,0 L10,5 L0,10 z" fill="#d89a4a"/>
    </marker>
    <marker id="arr2m" viewBox="0 0 10 10" refX="9" refY="5" markerWidth="7" markerHeight="7" orient="auto-start-reverse">
      <path d="M0,0 L10,5 L0,10 z" fill="#988b76"/>
    </marker>
  </defs>

  <rect x="0" y="0" width="960" height="420" rx="10" fill="#0b0906"/>
  <rect x="0.5" y="0.5" width="959" height="419" rx="10" fill="none" stroke="#3d2c14"/>

  <text x="40" y="42" font-size="12" letter-spacing="4" fill="#988b76">INGEST-CONFLUENCE · ДЕТЕРМИНИРОВАННЫЙ КОНВЕЙЕР</text>

  <!-- row 1 -->
  <rect x="40" y="82" width="250" height="76" rx="6" fill="none" stroke="#5f4023" stroke-width="1.2"/>
  <text x="56" y="110" font-size="13" fill="#f2e3c4" font-weight="bold">выгрузка спейса Confluence</text>
  <text x="56" y="130" font-size="11" fill="#988b76">HTML-страницы + вложения</text>
  <text x="56" y="146" font-size="11" fill="#988b76">дата снапшота — из выгрузки</text>

  <rect x="360" y="82" width="250" height="92" rx="6" fill="#3d2c14" stroke="#d89a4a" stroke-width="1.2"/>
  <text x="376" y="110" font-size="13" fill="#fdf9f0" font-weight="bold">convert.py</text>
  <text x="376" y="130" font-size="11" fill="#d9b586">pandoc + lxml · детерминированно</text>
  <text x="376" y="146" font-size="11" fill="#d9b586">LLM не трогает содержимое</text>
  <text x="376" y="164" font-size="10.5" fill="#988b76">--space · --base-url · --unroll-pre</text>

  <rect x="680" y="82" width="240" height="76" rx="6" fill="none" stroke="#5f4023" stroke-width="1.2"/>
  <text x="696" y="110" font-size="13" fill="#f2e3c4" font-weight="bold">wiki/</text>
  <text x="696" y="130" font-size="11" fill="#988b76">*.md с [[wikilinks]]</text>
  <text x="696" y="146" font-size="11" fill="#988b76">GFM-таблицы · имена по alias</text>

  <line x1="290" y1="120" x2="360" y2="120" stroke="#d89a4a" stroke-width="1.2" marker-end="url(#arr2)"/>
  <line x1="610" y1="120" x2="680" y2="120" stroke="#d89a4a" stroke-width="1.2" marker-end="url(#arr2)"/>

  <!-- row 2 -->
  <rect x="360" y="240" width="250" height="66" rx="6" fill="none" stroke="#5f4023"/>
  <text x="376" y="266" font-size="12.5" fill="#f2e3c4">лог конверсии</text>
  <text x="376" y="286" font-size="11" fill="#988b76">таблицы, оставшиеся HTML,</text>
  <text x="376" y="300" font-size="11" fill="#988b76">логируются с причиной</text>

  <line x1="485" y1="174" x2="485" y2="240" stroke="#988b76" stroke-width="1" marker-end="url(#arr2m)"/>

  <rect x="680" y="240" width="240" height="66" rx="6" fill="none" stroke="#5f4023"/>
  <text x="696" y="266" font-size="12.5" fill="#f2e3c4">отчёт изменений</text>
  <text x="696" y="286" font-size="11" fill="#988b76">_CHANGES-&lt;дата&gt;.md — людям</text>
  <text x="696" y="300" font-size="11" fill="#988b76">.ingest.json — машинам</text>

  <line x1="800" y1="158" x2="800" y2="240" stroke="#988b76" stroke-width="1" stroke-dasharray="4 4" marker-end="url(#arr2m)"/>
  <text x="795" y="205" font-size="10.5" fill="#988b76" text-anchor="end">при повторном ingest</text>

  <rect x="40" y="240" width="250" height="66" rx="6" fill="none" stroke="#5f4023"/>
  <text x="56" y="266" font-size="12.5" fill="#f2e3c4">fix_tables.py</text>
  <text x="56" y="286" font-size="11" fill="#988b76">дотягивает wiki от v1</text>
  <text x="56" y="300" font-size="11" fill="#988b76">на месте · идемпотентно</text>

  <path d="M290,262 C480,220 600,180 678,152" fill="none" stroke="#988b76" stroke-width="1" stroke-dasharray="4 4" marker-end="url(#arr2m)"/>

  <!-- stats -->
  <line x1="40" y1="346" x2="920" y2="346" stroke="#3d2c14"/>
  <text x="40" y="376" font-size="11.5" fill="#d9b586">прогон: 446 страниц · 468/609 HTML-таблиц в чистый GFM · 0 пустых · 0 битых из 3 645</text>
  <text x="40" y="395" font-size="11" fill="#988b76">устаревшие страницы удаляются при повторе · файлы без confluence_id не трогаются</text>
</svg>
